<svg width="281" height="272" viewBox="0 0 281 272" fill="none" xmlns="http://www.w3.org/2000/svg">
<rect width="281" height="272" fill="#E5E5E5"/>
<path d="M140.299 271.35C66.629 271.35 22.889 261.19 6.55901 240.28C0.0590067 231.95 -0.810993 223.18 0.549007 217.74L0.849007 216.52L48.589 110.13C48.679 84.18 50.119 57.38 62.249 36.34C76.359 11.89 101.889 0 140.299 0C178.709 0 204.239 11.89 218.349 36.34C230.479 57.37 231.919 84.17 232.009 110.13L279.749 216.52L280.049 217.74C281.409 223.17 280.539 231.95 274.039 240.28C257.709 261.18 213.969 271.35 140.299 271.35ZM29.039 222.94C32.699 227.33 51.999 243 140.299 243C228.599 243 247.899 227.33 251.559 222.94L203.669 116.21V113.18C203.669 53.36 194.869 28.35 140.309 28.35C85.749 28.35 76.939 53.36 76.939 113.18V116.21L29.039 222.94Z" fill="url(#paint0_linear_0_1)"/>
<path d="M192.522 149.802C192.838 101.476 174.438 55.236 149.344 55.0721C129.341 54.9415 113.057 83.2921 112.778 125.976C112.612 151.488 122.013 180.006 136.691 180.102C149.711 180.187 156.925 163.062 157.061 142.21C159.192 142.224 160.564 149.593 160.516 156.952C160.383 177.313 148.525 198.578 134.795 198.488C116.804 198.371 98.3246 164.151 98.6546 113.617C98.8597 82.2181 106.37 56.0181 112.747 40.114C104.965 53.5557 93.546 80.2208 93.2721 122.168C92.9565 170.494 111.357 216.734 136.45 216.898C156.454 217.029 172.738 188.678 173.016 145.994C173.183 120.482 163.781 91.9641 149.104 91.8683C136.084 91.7833 128.87 108.908 128.734 129.76C126.603 129.746 125.231 122.377 125.279 115.018C125.412 94.6574 137.269 73.3921 151 73.4818C168.991 73.5993 187.47 107.819 187.14 158.353C186.935 189.752 179.425 215.952 173.047 231.856C180.829 218.414 192.249 191.749 192.522 149.802Z" fill="#55307A"/>
<path d="M192.522 149.802C192.838 101.476 174.438 55.236 149.344 55.0721C129.341 54.9415 113.057 83.2921 112.778 125.976C112.612 151.488 122.013 180.006 136.691 180.102C149.711 180.187 156.925 163.062 157.061 142.21C159.192 142.224 160.564 149.593 160.516 156.952C160.383 177.313 148.525 198.578 134.795 198.488C116.804 198.371 98.3246 164.151 98.6546 113.617C98.8597 82.2181 106.37 56.0181 112.747 40.114C104.965 53.5557 93.546 80.2208 93.2721 122.168C92.9565 170.494 111.357 216.734 136.45 216.898C156.454 217.029 172.738 188.678 173.016 145.994C173.183 120.482 163.781 91.9641 149.104 91.8683C136.084 91.7833 128.87 108.908 128.734 129.76C126.603 129.746 125.231 122.377 125.279 115.018C125.412 94.6574 137.269 73.3921 151 73.4818C168.991 73.5993 187.47 107.819 187.14 158.353C186.935 189.752 179.425 215.952 173.047 231.856C180.829 218.414 192.249 191.749 192.522 149.802Z" fill="url(#paint1_radial_0_1)" fill-opacity="0.58"/>
<path d="M144.01 152C142.9 152.001 141.394 141.575 140.609 140.529C139.823 139.484 132.001 137.494 132 136.013C131.999 134.533 139.819 132.526 140.603 131.478C141.387 130.431 142.88 120.001 143.99 120C145.1 119.999 146.606 130.425 147.391 131.471C148.177 132.516 155.999 134.506 156 135.987C156.001 137.467 148.181 139.474 147.397 140.522C146.613 141.569 145.12 151.999 144.01 152Z" fill="#4579FF"/>
<defs>
<linearGradient id="paint0_linear_0_1" x1="140.299" y1="3.82206e-07" x2="146.5" y2="271" gradientUnits="userSpaceOnUse">
<stop stop-color="#6000BF"/>
<stop offset="1" stop-color="#DB00FF"/>
</linearGradient>
<radialGradient id="paint1_radial_0_1" cx="0" cy="0" r="1" gradientUnits="userSpaceOnUse" gradientTransform="translate(142.897 135.985) rotate(90.3742) scale(95.6721 49.7144)">
<stop stop-color="#D000F1"/>
<stop offset="1" stop-color="#D000F1" stop-opacity="0"/>
</radialGradient>
</defs>
</svg>
