<svg width="321" height="312" viewBox="0 0 321 312" fill="none" xmlns="http://www.w3.org/2000/svg">
<path d="M160.299 291.35C86.629 291.35 42.889 281.19 26.559 260.28C20.059 251.95 19.189 243.18 20.549 237.74L20.849 236.52L68.589 130.13C68.679 104.18 70.119 77.38 82.249 56.34C96.359 31.89 121.889 20 160.299 20C198.709 20 224.239 31.89 238.349 56.34C250.479 77.37 251.919 104.17 252.009 130.13L299.749 236.52L300.049 237.74C301.409 243.17 300.539 251.95 294.039 260.28C277.709 281.18 233.969 291.35 160.299 291.35ZM49.039 242.94C52.699 247.33 71.999 263 160.299 263C248.599 263 267.899 247.33 271.559 242.94L223.669 136.21V133.18C223.669 73.36 214.869 48.35 160.309 48.35C105.749 48.35 96.939 73.36 96.939 133.18V136.21L49.039 242.94Z" fill="url(#paint0_linear_1301_6)"/>
<path d="M212.522 169.802C212.838 121.476 194.438 75.236 169.344 75.0721C149.341 74.9415 133.057 103.292 132.778 145.976C132.612 171.488 142.013 200.006 156.691 200.102C169.711 200.187 176.925 183.062 177.061 162.21C179.192 162.224 180.564 169.593 180.516 176.952C180.383 197.313 168.525 218.578 154.795 218.488C136.804 218.371 118.325 184.151 118.655 133.617C118.86 102.218 126.37 76.0181 132.747 60.114C124.965 73.5557 113.546 100.221 113.272 142.168C112.957 190.494 131.357 236.734 156.45 236.898C176.454 237.029 192.738 208.678 193.016 165.994C193.183 140.482 183.781 111.964 169.104 111.868C156.084 111.783 148.87 128.908 148.734 149.76C146.603 149.746 145.231 142.377 145.279 135.018C145.412 114.657 157.269 93.3921 171 93.4818C188.991 93.5993 207.47 127.819 207.14 178.353C206.935 209.752 199.425 235.952 193.047 251.856C200.829 238.414 212.249 211.749 212.522 169.802Z" fill="#55307A"/>
<path d="M212.522 169.802C212.838 121.476 194.438 75.236 169.344 75.0721C149.341 74.9415 133.057 103.292 132.778 145.976C132.612 171.488 142.013 200.006 156.691 200.102C169.711 200.187 176.925 183.062 177.061 162.21C179.192 162.224 180.564 169.593 180.516 176.952C180.383 197.313 168.525 218.578 154.795 218.488C136.804 218.371 118.325 184.151 118.655 133.617C118.86 102.218 126.37 76.0181 132.747 60.114C124.965 73.5557 113.546 100.221 113.272 142.168C112.957 190.494 131.357 236.734 156.45 236.898C176.454 237.029 192.738 208.678 193.016 165.994C193.183 140.482 183.781 111.964 169.104 111.868C156.084 111.783 148.87 128.908 148.734 149.76C146.603 149.746 145.231 142.377 145.279 135.018C145.412 114.657 157.269 93.3921 171 93.4818C188.991 93.5993 207.47 127.819 207.14 178.353C206.935 209.752 199.425 235.952 193.047 251.856C200.829 238.414 212.249 211.749 212.522 169.802Z" fill="url(#paint1_radial_1301_6)" fill-opacity="0.58"/>
<path d="M164.01 172C162.9 172.001 161.394 161.575 160.609 160.529C159.823 159.484 152.001 157.494 152 156.013C151.999 154.533 159.819 152.526 160.603 151.478C161.387 150.431 162.88 140.001 163.99 140C165.1 139.999 166.606 150.425 167.391 151.471C168.177 152.516 175.999 154.506 176 155.987C176.001 157.467 168.181 159.474 167.397 160.522C166.613 161.569 165.12 171.999 164.01 172Z" fill="#4579FF"/>
<defs>
<linearGradient id="paint0_linear_1301_6" x1="160.299" y1="20" x2="166.5" y2="291" gradientUnits="userSpaceOnUse">
<stop stop-color="#6000BF"/>
<stop offset="1" stop-color="#DB00FF"/>
</linearGradient>
<radialGradient id="paint1_radial_1301_6" cx="0" cy="0" r="1" gradientUnits="userSpaceOnUse" gradientTransform="translate(162.897 155.985) rotate(90.3742) scale(95.6721 49.7144)">
<stop stop-color="#D000F1"/>
<stop offset="1" stop-color="#D000F1" stop-opacity="0"/>
</radialGradient>
</defs>
</svg>
